<?xml version="1.0" encoding="utf-8"?>
<!-- Generator: Adobe Illustrator 16.0.0, SVG Export Plug-In . SVG Version: 6.00 Build 0)  -->
<!DOCTYPE svg PUBLIC "-//W3C//DTD SVG 1.1//EN" "http://www.w3.org/Graphics/SVG/1.1/DTD/svg11.dtd">
<svg version="1.1" id="Layer_1" xmlns="http://www.w3.org/2000/svg" xmlns:xlink="http://www.w3.org/1999/xlink" x="0px" y="0px"
	 width="207px" height="7px" viewBox="0 0 207 7" enable-background="new 0 0 207 7" xml:space="preserve">
<path fill="#FFFFFF" d="M207,4c-0.775-2.333-2.797-4-5.175-4c-2.377,0-4.398,1.666-5.175,3.999C195.875,1.666,193.854,0,191.476,0
	c-2.378,0-4.4,1.666-5.174,3.999C185.525,1.666,183.505,0,181.126,0s-4.399,1.666-5.175,3.999C175.176,1.666,173.154,0,170.775,0
	s-4.399,1.666-5.176,3.999C164.825,1.666,162.804,0,160.426,0c-2.379,0-4.398,1.666-5.176,3.999C154.476,1.666,152.454,0,150.075,0
	c-2.378,0-4.398,1.666-5.174,3.999C144.125,1.666,142.104,0,139.725,0c-2.378,0-4.398,1.666-5.174,3.999
	C133.774,1.666,131.754,0,129.376,0c-2.379,0-4.399,1.666-5.176,3.999C123.426,1.666,121.404,0,119.025,0
	c-2.378,0-4.398,1.666-5.176,3.999C113.075,1.666,111.054,0,108.676,0s-4.4,1.666-5.175,3.999C102.725,1.666,100.704,0,98.326,0
	c-2.379,0-4.4,1.666-5.175,3.999C92.375,1.666,90.353,0,87.975,0c-2.377,0-4.398,1.666-5.175,3.999C82.025,1.666,80.003,0,77.625,0
	c-2.378,0-4.398,1.666-5.174,3.999C71.676,1.666,69.653,0,67.276,0s-4.4,1.666-5.176,3.999C61.325,1.666,59.304,0,56.925,0
	c-2.377,0-4.398,1.666-5.175,3.999C50.975,1.666,48.953,0,46.576,0c-2.379,0-4.4,1.666-5.175,3.999C40.625,1.666,38.604,0,36.226,0
	s-4.399,1.666-5.175,3.999C30.275,1.666,28.254,0,25.875,0s-4.4,1.666-5.175,3.999C19.925,1.666,17.903,0,15.526,0
	c-2.378,0-4.399,1.666-5.175,3.999C9.575,1.666,7.554,0,5.176,0C2.797,0,0.777,1.666,0,3.999h0V7h207V4z"/>
</svg>
