<?xml version="1.0" encoding="utf-8"?>
<!-- Generator: Adobe Illustrator 16.0.0, SVG Export Plug-In . SVG Version: 6.00 Build 0)  -->
<!DOCTYPE svg PUBLIC "-//W3C//DTD SVG 1.1//EN" "http://www.w3.org/Graphics/SVG/1.1/DTD/svg11.dtd">
<svg version="1.1" xmlns="http://www.w3.org/2000/svg" xmlns:xlink="http://www.w3.org/1999/xlink" x="0px" y="0px" width="400px"
	 height="9.617px" viewBox="0 0 400 9.617" enable-background="new 0 0 400 9.617" xml:space="preserve">
<g id="Layer_1" display="none">
	
		<image display="inline" overflow="visible" width="1920" height="1080" xlink:href="24B4DCE.jpg"  transform="matrix(1 0 0 1 -601.5908 -287.4048)">
	</image>
</g>
<g id="Layer_2">
	<path fill="#FFFFFF" d="M400,9.617c0-5-3.81-9.514-8.509-9.514c-3.667,0-6.782,2.519-7.979,6.114
		c-1.196-3.596-4.313-6.191-7.979-6.191c-3.667,0-6.783,2.557-7.979,6.153c-1.195-3.596-4.312-6.172-7.979-6.172
		s-6.783,2.566-7.979,6.162c-1.196-3.596-4.313-6.167-7.979-6.167c-3.666,0-6.782,2.569-7.979,6.165
		C334.443,2.571,331.327,0,327.661,0c-3.667,0-6.783,2.569-7.979,6.166C318.486,2.57,315.37,0,311.703,0
		c-3.667,0-6.783,2.57-7.979,6.166C302.528,2.57,299.413,0,295.746,0c-3.667,0-6.783,2.57-7.979,6.166
		C286.571,2.57,283.455,0,279.788,0s-6.783,2.57-7.979,6.166C270.613,2.57,267.497,0,263.831,0c-3.667,0-6.783,2.57-7.979,6.166
		C254.656,2.57,251.54,0,247.873,0c-3.667,0-6.783,2.57-7.979,6.166C238.698,2.57,235.582,0,231.915,0
		c-3.667,0-6.783,2.57-7.979,6.166C222.74,2.57,219.625,0,215.958,0c-3.667,0-6.783,2.57-7.979,6.166C206.783,2.57,203.667,0,200,0
		s-6.783,2.57-7.979,6.166C190.825,2.57,187.709,0,184.042,0c-3.667,0-6.783,2.57-7.979,6.166C174.868,2.57,171.751,0,168.085,0
		c-3.667,0-6.783,2.57-7.979,6.166C158.91,2.57,155.794,0,152.127,0c-3.667,0-6.783,2.57-7.979,6.166
		C142.952,2.57,139.836,0,136.169,0c-3.667,0-6.783,2.57-7.979,6.166C126.995,2.57,123.878,0,120.212,0s-6.783,2.57-7.979,6.166
		C111.037,2.57,107.921,0,104.254,0c-3.667,0-6.783,2.57-7.979,6.166C95.08,2.57,91.963,0,88.297,0c-3.667,0-6.783,2.57-7.979,6.166
		C79.122,2.57,76.006,0,72.339,0c-3.667,0-6.783,2.57-7.979,6.166C63.164,2.57,60.048,0,56.381,0c-3.667,0-6.783,2.57-7.979,6.166
		C47.207,2.57,44.09,0,40.424,0s-6.783,2.57-7.979,6.166C31.249,2.57,28.133,0,24.466,0s-6.783,2.57-7.979,6.166
		c-1.196-3.596-4.312-6.063-7.979-6.063C3.81,0.104,0,4.617,0,9.617H400z"/>
</g>
</svg>
