<?xml version="1.0" encoding="utf-8"?>
<!-- Generator: Adobe Illustrator 16.0.0, SVG Export Plug-In . SVG Version: 6.00 Build 0)  -->
<!DOCTYPE svg PUBLIC "-//W3C//DTD SVG 1.1//EN" "http://www.w3.org/Graphics/SVG/1.1/DTD/svg11.dtd">
<svg version="1.1" id="Layer_1" xmlns="http://www.w3.org/2000/svg" xmlns:xlink="http://www.w3.org/1999/xlink" x="0px" y="0px"
	 width="22.506px" height="23px" viewBox="0 0 22.506 23" enable-background="new 0 0 22.506 23" xml:space="preserve">
<path fill="#EA4819" d="M9.048,18.476c0-1.545-0.804-2.998-2.107-3.823l2.909-1.778V10.11L6.952,8.34
	c1.297-0.827,2.096-2.276,2.096-3.816C9.048,2.029,7.019,0,4.524,0C2.029,0,0,2.029,0,4.523c0,1.665,0.911,3.191,2.375,3.981
	l4.994,2.987l-5.137,3.073l-0.049,0.039C0.835,15.422,0,16.899,0,18.476C0,20.971,2.029,23,4.524,23
	C7.019,23,9.048,20.971,9.048,18.476z M2.55,18.476c0-1.089,0.885-1.975,1.975-1.975c1.089,0,1.975,0.886,1.975,1.975
	c0,1.09-0.886,1.975-1.975,1.975C3.435,20.45,2.55,19.565,2.55,18.476z M6.499,4.523c0,1.089-0.886,1.975-1.975,1.975
	c-1.09,0-1.975-0.886-1.975-1.975s0.885-1.975,1.975-1.975C5.613,2.549,6.499,3.435,6.499,4.523z"/>
<polygon fill="#1E293B" points="22.493,17.957 20.145,16.501 12.073,11.495 22.506,5.267 22.506,2.393 9.679,10.087 7.503,11.415 
	7.369,11.492 17.793,17.918 22.493,20.803 "/>
</svg>
