<?xml version="1.0" encoding="utf-8"?>
<!-- Generator: Adobe Illustrator 16.0.0, SVG Export Plug-In . SVG Version: 6.00 Build 0)  -->
<!DOCTYPE svg PUBLIC "-//W3C//DTD SVG 1.1//EN" "http://www.w3.org/Graphics/SVG/1.1/DTD/svg11.dtd">
<svg version="1.1" id="Layer_1" xmlns="http://www.w3.org/2000/svg" xmlns:xlink="http://www.w3.org/1999/xlink" x="0px" y="0px"
	 width="42.902px" height="45.292px" viewBox="4.462 5.024 42.902 45.292" enable-background="new 4.462 5.024 42.902 45.292"
	 xml:space="preserve">
<path fill-rule="evenodd" clip-rule="evenodd" fill="#1E293B" d="M44.717,5.024H7.107c-1.461,0-2.646,1.185-2.646,2.646v40.002
	c0,1.461,1.185,2.645,2.646,2.645h37.61c1.461,0,2.646-1.184,2.646-2.645V7.67C47.364,6.209,46.178,5.024,44.717,5.024z
	 M18.66,45.625c0,0.578-0.469,1.047-1.048,1.047H8.358c-0.578,0-1.047-0.469-1.047-1.047v-5.354c0-0.579,0.469-1.048,1.047-1.048
	h9.254c0.579,0,1.048,0.469,1.048,1.048V45.625z M18.66,36.587c0,0.578-0.469,1.048-1.048,1.048H8.358
	c-0.578,0-1.047-0.47-1.047-1.048v-5.354c0-0.579,0.469-1.049,1.047-1.049h9.254c0.579,0,1.048,0.47,1.048,1.049V36.587z
	 M18.66,27.548c0,0.579-0.469,1.047-1.048,1.047H8.358c-0.578,0-1.047-0.469-1.047-1.047v-5.354c0-0.579,0.469-1.048,1.047-1.048
	h9.254c0.579,0,1.048,0.469,1.048,1.048V27.548z M31.586,45.625c0,0.578-0.469,1.047-1.047,1.047h-9.254
	c-0.579,0-1.048-0.469-1.048-1.047v-5.354c0-0.579,0.469-1.048,1.048-1.048h9.254c0.578,0,1.047,0.469,1.047,1.048V45.625z
	 M31.586,36.587c0,0.578-0.469,1.048-1.047,1.048h-9.254c-0.579,0-1.048-0.47-1.048-1.048v-5.354c0-0.579,0.469-1.049,1.048-1.049
	h9.254c0.578,0,1.047,0.47,1.047,1.049V36.587z M31.586,27.548c0,0.579-0.469,1.047-1.047,1.047h-9.254
	c-0.579,0-1.048-0.469-1.048-1.047v-5.354c0-0.579,0.469-1.048,1.048-1.048h9.254c0.578,0,1.047,0.469,1.047,1.048V27.548z
	 M44.465,45.625c0,0.578-0.469,1.047-1.047,1.047h-9.254c-0.578,0-1.049-0.469-1.049-1.047v-5.354c0-0.579,0.471-1.048,1.049-1.048
	h9.254c0.578,0,1.047,0.469,1.047,1.048V45.625z M44.465,36.587c0,0.578-0.469,1.048-1.047,1.048h-9.254
	c-0.578,0-1.049-0.47-1.049-1.048v-5.354c0-0.579,0.471-1.049,1.049-1.049h9.254c0.578,0,1.047,0.47,1.047,1.049V36.587z
	 M44.465,27.548c0,0.579-0.469,1.047-1.047,1.047h-9.254c-0.578,0-1.049-0.469-1.049-1.047v-5.354c0-0.579,0.471-1.048,1.049-1.048
	h9.254c0.578,0,1.047,0.469,1.047,1.048V27.548z M44.465,16.526c0,0.578-0.469,1.047-1.047,1.047H8.358
	c-0.578,0-1.047-0.469-1.047-1.047v-5.354c0-0.579,0.469-1.048,1.047-1.048h35.06c0.578,0,1.047,0.469,1.047,1.048V16.526z"/>
</svg>
