<?xml version="1.0" encoding="utf-8"?>
<!-- Generator: Adobe Illustrator 16.0.0, SVG Export Plug-In . SVG Version: 6.00 Build 0)  -->
<!DOCTYPE svg PUBLIC "-//W3C//DTD SVG 1.1//EN" "http://www.w3.org/Graphics/SVG/1.1/DTD/svg11.dtd">
<svg version="1.1" id="Layer_1" xmlns="http://www.w3.org/2000/svg" xmlns:xlink="http://www.w3.org/1999/xlink" x="0px" y="0px"
	 width="65.729px" height="44.215px" viewBox="-8.752 3.435 65.729 44.215" enable-background="new -8.752 3.435 65.729 44.215"
	 xml:space="preserve">
<g>
	<g>
		<path fill="#1E293B" d="M42.86,27.958c0.033-9.77-7.568-18.343-17.855-18.813C13.921,8.638,5.324,17.563,5.395,27.786
			c-0.136,9.733,7.526,18.403,17.958,18.818C34.37,47.041,42.825,38.167,42.86,27.958z M24.131,41.517
			c-7.915,0.017-13.689-6.45-13.665-13.692c0.025-7.052,5.579-13.592,13.635-13.605c8.02-0.013,13.691,6.503,13.654,13.636
			C37.827,34.926,32.167,41.5,24.131,41.517z M24.086,6.742c6.02-0.008,11.082,2.273,15.426,6.38
			c-0.074-0.13-0.135-0.271-0.227-0.388c-2.172-2.788-3.855-5.569-6.02-8.362c-0.229-0.296-0.982-0.936-1.936-0.936
			c-5.141,0-9.287,0.013-14.426-0.002c-1.073,0-1.615,0.519-1.972,0.986c-2.124,2.773-3.798,5.51-5.945,8.266
			c-0.104,0.132-0.185,0.282-0.275,0.425c0.033,0.039,0.066,0.078,0.099,0.118C13.048,9.025,18.092,6.749,24.086,6.742z
			 M2.884,27.872c0-5.129,1.817-9.832,4.843-13.503H-6.556c-1.213,0-2.196,0.983-2.196,2.195v28.889
			c0,1.213,0.983,2.196,2.196,2.196h22.933C8.479,44.552,2.884,36.867,2.884,27.872z M54.78,14.369H40.526
			c3.025,3.671,4.844,8.374,4.844,13.503c0,8.995-5.596,16.68-13.492,19.777H54.78c1.213,0,2.197-0.983,2.197-2.196V16.564
			C56.977,15.353,55.993,14.369,54.78,14.369z"/>
	</g>
</g>
</svg>
