<?xml version="1.0" encoding="utf-8"?>
<!-- Generator: Adobe Illustrator 16.0.0, SVG Export Plug-In . SVG Version: 6.00 Build 0)  -->
<!DOCTYPE svg PUBLIC "-//W3C//DTD SVG 1.1//EN" "http://www.w3.org/Graphics/SVG/1.1/DTD/svg11.dtd">
<svg version="1.1" id="Layer_1" xmlns="http://www.w3.org/2000/svg" xmlns:xlink="http://www.w3.org/1999/xlink" x="0px" y="0px"
	 width="30px" height="29.355px" viewBox="0 0 30 29.355" enable-background="new 0 0 30 29.355" xml:space="preserve">
<path fill="#EA4819" d="M24.099,17.554c-2.016,0-3.91,1.049-4.987,2.749l-2.319-3.795h-3.604l-2.31,3.779
	c-1.079-1.691-2.969-2.733-4.978-2.733c-3.254,0-5.9,2.647-5.9,5.9c0,3.254,2.646,5.901,5.9,5.901c2.172,0,4.162-1.188,5.192-3.098
	l3.897-6.514l4.008,6.699l0.052,0.064c1.065,1.759,2.993,2.848,5.049,2.848c3.254,0,5.901-2.647,5.901-5.901
	C30,20.201,27.353,17.554,24.099,17.554z M24.099,26.03c-1.42,0-2.575-1.155-2.575-2.576c0-1.42,1.155-2.575,2.575-2.575
	c1.421,0,2.575,1.155,2.575,2.575C26.674,24.875,25.52,26.03,24.099,26.03z M5.9,20.879c1.42,0,2.575,1.155,2.575,2.575
	c0,1.421-1.155,2.576-2.575,2.576s-2.576-1.155-2.576-2.576C3.324,22.034,4.48,20.879,5.9,20.879z"/>
<polygon fill="#BBC1C7" points="23.423,0.017 21.523,3.08 14.993,13.607 6.869,0 3.12,0 13.156,16.731 14.889,19.569 14.99,19.744 
	23.371,6.147 27.134,0.017 "/>
</svg>
