<?xml version="1.0" encoding="utf-8"?>
<!-- Generator: Adobe Illustrator 16.0.0, SVG Export Plug-In . SVG Version: 6.00 Build 0)  -->
<!DOCTYPE svg PUBLIC "-//W3C//DTD SVG 1.1//EN" "http://www.w3.org/Graphics/SVG/1.1/DTD/svg11.dtd">
<svg version="1.1" id="Layer_1" xmlns="http://www.w3.org/2000/svg" xmlns:xlink="http://www.w3.org/1999/xlink" x="0px" y="0px"
	 width="25px" height="12.871px" viewBox="0 0 25 12.871" enable-background="new 0 0 25 12.871" xml:space="preserve">
<path fill-rule="evenodd" clip-rule="evenodd" fill="#EB4819" d="M12.457,0L25,6.458l-12.457,6.413L0,6.413L12.457,0z"/>
<g>
	<path fill="#FFFFFF" d="M11.363,5.855l0.064-0.064c0.809-0.034,1.383-0.15,1.725-0.351c0.34-0.2,0.511-0.47,0.511-0.811V4.603
		c0-0.289-0.103-0.512-0.307-0.67c-0.204-0.157-0.494-0.236-0.869-0.236c-0.357,0-0.692,0.073-1.002,0.217
		c-0.312,0.145-0.615,0.366-0.913,0.664l-1.175-1.29c0.375-0.409,0.815-0.741,1.322-0.997s1.109-0.383,1.808-0.383
		c0.459,0,0.878,0.058,1.256,0.172c0.377,0.115,0.701,0.286,0.973,0.511c0.271,0.226,0.479,0.502,0.628,0.831
		c0.147,0.327,0.221,0.705,0.221,1.13v0.026c0,0.409-0.064,0.758-0.196,1.047c-0.131,0.29-0.309,0.536-0.532,0.741
		c-0.225,0.205-0.489,0.369-0.794,0.492s-0.631,0.22-0.979,0.288l-0.142,0.778h-1.303L11.363,5.855z M11.235,8.921h2.07v2.043h-2.07
		V8.921z"/>
</g>
</svg>
