<?xml version="1.0" encoding="utf-8"?>
<!-- Generator: Adobe Illustrator 16.0.0, SVG Export Plug-In . SVG Version: 6.00 Build 0)  -->
<!DOCTYPE svg PUBLIC "-//W3C//DTD SVG 1.1//EN" "http://www.w3.org/Graphics/SVG/1.1/DTD/svg11.dtd">
<svg version="1.1" id="Layer_1" xmlns="http://www.w3.org/2000/svg" xmlns:xlink="http://www.w3.org/1999/xlink" x="0px" y="0px"
	 width="180px" height="50.137px" viewBox="0 0 180 50.137" enable-background="new 0 0 180 50.137" xml:space="preserve">
<rect x="144.349" y="0.875" fill="#EA4819" width="6.099" height="6.053"/>
<path fill="#EA4819" d="M40.954,30.082c-3.426,0-6.645,1.781-8.475,4.671l-3.941-6.447h-6.125l-3.925,6.42
	c-1.833-2.873-5.045-4.644-8.459-4.644C4.498,30.082,0,34.58,0,40.109s4.498,10.027,10.027,10.027c3.69,0,7.073-2.02,8.825-5.264
	l6.623-11.068l6.812,11.385l0.087,0.107c1.812,2.989,5.087,4.84,8.581,4.84c5.529,0,10.027-4.498,10.027-10.027
	S46.483,30.082,40.954,30.082z M40.954,44.486c-2.414,0-4.376-1.964-4.376-4.377s1.963-4.377,4.376-4.377s4.376,1.964,4.376,4.377
	S43.367,44.486,40.954,44.486z M10.027,35.732c2.413,0,4.377,1.964,4.377,4.377s-1.964,4.377-4.377,4.377s-4.376-1.964-4.376-4.377
	S7.614,35.732,10.027,35.732z"/>
<rect x="144.349" y="9.818" fill="#EA4819" width="6.099" height="23.86"/>
<path fill="#EA4819" d="M130,0.252h6.095v24.452c0,2.64,1.303,3.3,2.899,3.3c0.484,0,0.919-0.047,0.919-0.047v5.619
	c0,0-1.303,0.141-2.319,0.141c-3.386,0-7.595-0.849-7.595-7.733V0.252z"/>
<path fill="#EA4819" d="M155.957,9.818h5.425v1.824c0,0.889-0.094,1.637-0.094,1.637h0.094c0,0,2.438-3.928,8.05-3.928
	c6.453,0,10.568,5.097,10.568,12.485c0,7.576-4.63,12.486-10.896,12.486c-4.723,0-7.208-3.272-7.208-3.272h-0.093
	c0,0,0.093,0.84,0.093,2.057v10.007h-5.939V9.818z M168.029,29.319c3.273,0,5.986-2.666,5.986-7.39c0-4.535-2.432-7.481-5.939-7.481
	c-3.086,0-6.366,2.245-6.366,7.529C161.709,25.673,164.1,29.319,168.029,29.319z"/>
<path fill="#EA4819" d="M123.239,24.076l-0.163,0.178c-0.038,0.04-3.822,4.075-9.328,4.075c-7.086,0-10.793-5.777-10.793-11.483
	c0-6.49,4.419-11.023,10.748-11.023c5.055,0,8.75,3.362,8.787,3.396l0.173,0.16l3.062-4.741l-0.104-0.112
	C125.579,4.479,121.377,0,113.426,0c-9.682,0-16.983,7.282-16.983,16.938c0,9.974,7.182,17.212,17.075,17.212
	c8.319,0,12.937-5.304,12.981-5.357l0.102-0.119L123.239,24.076z"/>
<g>
	<path fill="#1E293B" d="M80.084,34.15c-1.912,0-3.641-0.326-5.188-0.978c-1.547-0.652-2.867-1.54-3.959-2.663
		c-1.092-1.122-1.934-2.427-2.526-3.914c-0.592-1.485-0.888-3.049-0.888-4.687c0-1.698,0.288-3.3,0.865-4.802
		c0.576-1.501,1.411-2.821,2.503-3.959s2.419-2.04,3.982-2.708c1.562-0.667,3.314-1.001,5.256-1.001
		c1.941,0,3.678,0.334,5.211,1.001c1.531,0.668,2.836,1.563,3.914,2.685c1.077,1.124,1.896,2.429,2.458,3.914
		c0.561,1.487,0.842,3.035,0.842,4.642c0,0.396-0.008,0.774-0.022,1.139c-0.016,0.364-0.054,0.668-0.114,0.909H73.986
		c0.091,0.941,0.318,1.775,0.683,2.504c0.364,0.728,0.834,1.351,1.411,1.865c0.576,0.517,1.229,0.911,1.957,1.184
		c0.729,0.273,1.486,0.41,2.275,0.41c1.213,0,2.359-0.296,3.436-0.888c1.077-0.592,1.813-1.372,2.208-2.344l5.233,1.456
		c-0.88,1.82-2.283,3.315-4.209,4.482C85.052,33.567,82.754,34.15,80.084,34.15z M86.273,19.771
		c-0.152-1.79-0.813-3.224-1.979-4.301c-1.168-1.077-2.587-1.616-4.255-1.616c-0.82,0-1.586,0.145-2.299,0.433
		c-0.713,0.289-1.342,0.691-1.888,1.206c-0.546,0.517-0.994,1.138-1.343,1.865c-0.349,0.729-0.554,1.533-0.614,2.413H86.273z"/>
	<polygon fill="#1E293B" points="67.978,0.252 53.635,23.376 42.926,5.493 39.805,0.279 36.576,5.485 25.479,23.376 11.674,0.252 
		5.304,0.252 22.358,28.684 25.301,33.507 25.475,33.805 39.718,10.698 53.636,33.789 74.303,0.252 	"/>
</g>
</svg>
